<?xml version="1.0" encoding="iso-8859-1"?>
<!-- Generator: Adobe Illustrator 19.0.0, SVG Export Plug-In . SVG Version: 6.00 Build 0)  -->
<svg version="1.1" id="Layer_1" xmlns="http://www.w3.org/2000/svg" xmlns:xlink="http://www.w3.org/1999/xlink" x="0px" y="0px"
	 viewBox="0 0 511.999 511.999" style="enable-background:new 0 0 511.999 511.999;" xml:space="preserve">
<g>
	<g>
		<g>
			<path d="M187.364,127.188H44.135c-5.966,0-10.817,4.853-10.817,10.817V501.18c0,5.966,4.853,10.819,10.817,10.819h143.229
				c5.966,0,10.817-4.854,10.817-10.819V138.005C198.181,132.041,193.328,127.188,187.364,127.188z"/>
			<path d="M421.295,69.825c-2.499,2.894-5.135,5.743-7.916,8.525c-15.703,15.703-33.895,27.367-51.226,32.84
				c-7.372,2.328-14.364,3.482-20.826,3.482c-3.072,0-6.021-0.269-8.838-0.787l-0.003,10.444v45.548h88.893L421.295,69.825z"/>
			<path d="M353.204,82.862c12.678-4.005,26.954-13.307,39.165-25.52c17.393-17.393,25.856-35.443,27.331-47.349
				c-0.811-1.876-1.922-3.549-3.347-4.975C405.036-6.3,378.204,2.172,356.431,23.946c-15.59,15.591-24.363,33.772-23.932,46.997
				l-0.003,10.79c0.324,0.273,0.645,0.553,0.949,0.859C336.451,85.599,344.207,85.705,353.204,82.862z"/>
			<path d="M442.366,213.726c0-7.796-6.344-14.139-14.142-14.139H325.655c-7.799,0-14.142,6.343-14.142,14.139v86.106h130.852
				V213.726z"/>
			<path d="M467.865,329.54H286.016c-5.966,0-10.819,4.854-10.819,10.819v135.516c0,5.966,4.853,10.819,10.819,10.819h181.849
				c5.964,0,10.816-4.854,10.816-10.819V340.359C478.681,334.393,473.829,329.54,467.865,329.54z"/>
		</g>
	</g>
</g>
<g>
</g>
<g>
</g>
<g>
</g>
<g>
</g>
<g>
</g>
<g>
</g>
<g>
</g>
<g>
</g>
<g>
</g>
<g>
</g>
<g>
</g>
<g>
</g>
<g>
</g>
<g>
</g>
<g>
</g>
</svg>
