<?xml version="1.0" encoding="iso-8859-1"?>
<!-- Generator: Adobe Illustrator 16.0.0, SVG Export Plug-In . SVG Version: 6.00 Build 0)  -->
<!DOCTYPE svg PUBLIC "-//W3C//DTD SVG 1.1//EN" "http://www.w3.org/Graphics/SVG/1.1/DTD/svg11.dtd">
<svg version="1.1" id="Capa_1" xmlns="http://www.w3.org/2000/svg" xmlns:xlink="http://www.w3.org/1999/xlink" x="0px" y="0px"
	 width="165.499px" height="165.499px" viewBox="0 0 165.499 165.499" style="enable-background:new 0 0 165.499 165.499;"
	 xml:space="preserve">
<g>
	<g>
		<path d="M74.116,44.978c4.311-3.454,10.628-2.769,14.091,1.534c0.748,0.923,2.109,1.076,3.034,0.33
			c0.923-0.746,1.076-2.112,0.332-3.035c-4.519-5.622-12.418-6.869-18.451-3.301L2.167,40.292H2.162
			c-1.195,0-2.154,0.97-2.162,2.154c-0.005,1.181,0.962,2.154,2.157,2.164l66.264,0.201c-1.685,2.268-2.766,4.854-3.204,7.565
			L2.194,52.535C1,52.54,0.04,53.51,0.04,54.689c0.005,1.191,0.97,2.154,2.159,2.154c0,0,0,0,0.005,0L65,56.69
			c0.292,3.301,1.513,6.573,3.744,9.337c3.536,4.414,8.59,7.177,14.222,7.789c0.783,0.089,1.561,0.119,2.339,0.119
			c1.268,0,2.51-0.119,3.742-0.34l-5.498,5.497c-0.841,0.841-0.841,2.212,0,3.056c0.422,0.414,0.979,0.62,1.529,0.62
			c0.551,0,1.107-0.206,1.527-0.62l5.49-5.502c-0.332,1.943-0.509,3.947-0.285,5.982c0.606,5.627,3.375,10.684,7.784,14.223
			c2.868,2.314,6.344,3.575,9.945,3.765V163.1c0,1.197,0.971,2.162,2.151,2.162c1.197,0,2.157-0.971,2.157-2.162v-62.812
			c2.958-0.575,5.68-1.841,7.937-3.787v66.625c0,1.197,0.971,2.162,2.157,2.162s2.146-0.971,2.146-2.162V90.522
			c2.278-5.693,0.771-12.43-4.261-16.469c-0.928-0.751-2.288-0.583-3.032,0.335c-0.749,0.928-0.596,2.289,0.332,3.035
			c3.322,2.671,4.462,7.064,3.233,10.9c-0.343,0.38-0.575,0.881-0.575,1.435v0.01c-0.306,0.607-0.675,1.197-1.118,1.746
			c-2.183,2.716-5.289,4.424-8.765,4.81c-3.485,0.353-6.871-0.622-9.592-2.816c-3.507-2.815-5.722-6.84-6.207-11.316
			c-0.391-3.628,0.433-7.183,2.236-10.271c1.424-1.68,3.375-3.035,5.816-2.787c-0.464,0.18-0.87,0.433-1.239,0.778
			c-1.614,0.393-3.043,1.402-3.839,3.014c-1.593,3.304-0.211,7.312,3.079,8.909c1.097,0.551,2.268,0.799,3.417,0.799
			c2.88,0,5.675-1.613,7.057-4.385c2.204-4.58,0.311-10.104-4.24-12.34c-1.044-0.511-2.099-0.799-3.133-0.976
			c2.927-1.896,6.16-3.101,9.503-3.285c5.042-0.222,9.782,1.595,13.479,5.244c7.688,7.646,7.541,16.757,6.117,26.446
			c0,0.032-0.021,0.059-0.021,0.09c-0.011,0.031,0,0.074,0,0.111c-0.259,1.734-0.543,3.49-0.833,5.273
			c-0.454,2.699-0.907,5.352-1.208,7.979c-1.355,11.802-2.525,21.984,6.528,28.619c2.874,2.125,6.281,3.222,9.809,3.222
			c0.944,0,1.889-0.085,2.821-0.232c4.62-0.774,8.817-3.422,11.496-7.271c4.493-6.46,2.891-15.378-3.564-19.881
			c-0.991-0.686-2.336-0.433-3.011,0.543c-0.686,0.991-0.438,2.331,0.543,3.017c2.183,1.508,3.644,3.797,4.118,6.412
			c0.47,2.61-0.11,5.273-1.629,7.446c-2.025,2.9-5.179,4.894-8.659,5.484c-3.354,0.564-6.687-0.222-9.376-2.204
			c-6.703-4.915-6.223-12.192-4.789-24.638c0.169-1.492,0.443-3.054,0.696-4.599c1.008,0.896,2.168,1.641,3.639,2.046
			c0.707,0.2,1.424,0.296,2.131,0.296c3.48,0,6.687-2.305,7.684-5.807c0.49-1.74,0.279-3.575-0.617-5.157
			c-0.886-1.593-2.347-2.742-4.103-3.232c-1.509-0.422-3.091-0.237-4.462,0.543c-1.36,0.78-2.357,2.025-2.779,3.528
			c-0.132,0.49-0.194,0.976-0.189,1.466c-0.101-0.791-0.058-1.571,0.037-2.31c1.477-10.271,1.725-21.197-7.33-30.209
			c-4.567-4.535-10.474-6.792-16.765-6.492c-1.25,0.077-2.483,0.359-3.718,0.638l3.897-3.892c3.032,2.365,6.739,3.715,10.71,3.715
			c0.053,0,0.111,0,0.158,0c5.031-0.045,9.782-2.096,13.39-5.764l4.15-4.2c0.506-0.525,0.717-1.248,0.559-1.959
			c-0.143-0.709-0.644-1.292-1.318-1.556c-0.147-0.066-15.124-6.085-17.191-16.751c-0.232-1.184-1.393-1.927-2.536-1.706
			c-1.171,0.232-1.936,1.361-1.704,2.531c1.909,9.84,11.897,16.06,16.949,18.605l-1.988,2.02c-2.8,2.851-6.471,4.438-10.352,4.475
			c-3.396-0.156-6.897-1.284-9.365-3.731c-2.568-2.521-3.939-5.951-3.882-9.65c0.063-3.741,1.582-7.322,4.293-10.069l10.821-11.006
			c2.162-2.191,8.816-0.464,14.913,5.519c5.015,4.926,6.085,10.007,4.672,11.443c-0.938,0.665-6.708-0.804-10.879-4.904
			c-3.459-3.396-5.021-6.626-5.12-7.079c0.559-0.306,3.971-0.108,7.53,3.733c1.982,2.154,2.626,3.995,2.562,4.999
			c-0.084,1.194,0.812,2.215,2.01,2.305c1.187-0.047,2.22-0.814,2.304-2.007c0.169-2.528-1.139-5.444-3.691-8.213
			c-2.979-3.22-6.676-5.163-9.919-5.224c-1.577,0.021-2.9,0.422-3.792,1.318c-3.986,4.092,4.156,12.316,5.095,13.242
			c4.493,4.422,13.357,8.525,16.975,4.865c3.676-3.755,1.651-11.309-4.709-17.571c-7.646-7.533-16.685-9.877-21.025-5.477
			L113.495,27.04c-3.491,3.531-5.452,8.164-5.526,13.02c-0.074,4.108,1.266,7.905,3.681,11.009l-3.997,3.997
			c0.312-1.279,0.591-2.582,0.664-3.9c0.354-6.23-1.94-12.203-6.486-16.761c-9.027-9.086-19.976-8.817-30.261-7.317
			c-0.736,0.098-1.519,0.124-2.302,0.034c0.514,0.09,1.015-0.055,1.503-0.189c1.511-0.417,2.774-1.405,3.546-2.776
			s0.973-2.953,0.546-4.459c-1.01-3.607-4.751-5.735-8.393-4.725c-4.216,1.202-6.695,5.598-5.514,9.816
			c0.411,1.463,1.168,2.607,2.06,3.628c-1.54,0.242-3.096,0.53-4.606,0.696c-12.448,1.442-19.723,1.911-24.635-4.794
			c-1.978-2.684-2.761-6.027-2.199-9.381c0.577-3.488,2.576-6.636,5.466-8.651c4.509-3.119,10.734-2.009,13.872,2.489
			c0.68,0.994,2.024,1.239,3.008,0.551c0.983-0.686,1.221-2.036,0.541-3.017c-4.504-6.444-13.421-8.037-19.884-3.554
			c-3.844,2.663-6.491,6.858-7.264,11.464c-0.754,4.524,0.308,9.018,2.977,12.656c6.642,9.073,16.825,7.902,28.614,6.528
			c2.624-0.311,5.313-0.759,8.029-1.218c1.698-0.287,3.383-0.562,5.055-0.794c0.098-0.013,0.179-0.013,0.276-0.023
			c0.032,0,0.059-0.021,0.093-0.032c9.703-1.421,18.786-1.561,26.425,6.13c3.671,3.687,5.521,8.467,5.242,13.477
			c-0.185,3.388-1.435,6.657-3.364,9.629c-0.158-1.118-0.475-2.257-1.019-3.396c-1.081-2.205-2.969-3.878-5.3-4.672
			c-2.33-0.799-4.83-0.63-7.037,0.443c-1.896,0.928-3.301,2.534-3.976,4.503c-0.669,1.967-0.53,4.085,0.385,5.941
			c0.77,1.598,2.114,2.808,3.794,3.385c1.685,0.588,3.499,0.485,5.157-0.309c1.577-0.788,2.584-2.196,2.985-3.783
			c0.332-0.346,0.574-0.752,0.774-1.194c0.232,2.818-1.671,4.991-3.675,6.426c-2.848,1.399-6.03,1.988-9.253,1.674
			c-4.482-0.501-8.506-2.7-11.324-6.199c-1.922-2.397-2.809-5.287-2.813-8.142c0.071-0.222,0.129-0.443,0.129-0.675
			c0-0.206-0.063-0.391-0.113-0.58C69.633,50.562,71.26,47.285,74.116,44.978z M143.648,95.121c0.243-0.122,0.507-0.201,0.771-0.201
			c0.126,0,0.284,0.021,0.416,0.068c0.639,0.169,1.177,0.591,1.493,1.182c0.332,0.569,0.4,1.234,0.231,1.883
			c-0.284,1.013-0.97,1.787-1.824,2.241c0.11-0.169,0.189-0.343,0.242-0.56c0.327-1.139-0.343-2.346-1.492-2.657
			c-0.364-0.116-0.664-0.628-0.564-1.013C143.032,95.664,143.295,95.326,143.648,95.121z M105.69,77.14
			c0.147,0,0.76-0.068,0.907-0.108c1.002-0.211,1.798-0.804,2.362-1.572c-0.079,0.309-0.09,0.612-0.222,0.907
			c-0.864,1.729-2.953,2.468-4.693,1.611c-0.817-0.406-1.281-1.237-1.292-2.117C103.507,76.645,104.53,77.14,105.69,77.14z
			 M68.591,22.175c-0.264-0.962-1.134-1.582-2.078-1.582c-0.19,0-0.39,0.026-0.578,0.079c-0.205,0.061-0.39,0.143-0.562,0.248
			c0.448-0.852,1.237-1.527,2.233-1.819c1.313-0.372,2.695,0.406,3.059,1.729c0.113,0.393,0.063,0.804-0.143,1.176
			c-0.203,0.356-0.532,0.617-0.954,0.741c-0.259,0.074-0.485-0.011-0.588-0.076C68.869,22.605,68.673,22.455,68.591,22.175z
			 M89.707,62.781c-0.282,0.008-0.562-0.021-0.825-0.11c-0.586-0.206-1.055-0.628-1.335-1.216c-0.411-0.82-0.477-1.762-0.174-2.637
			c0.309-0.883,0.934-1.604,1.783-2.015c0.247-0.118,0.524-0.129,0.788-0.208c-0.723,0.577-1.242,1.397-1.453,2.336
			C88.162,60.395,88.702,61.805,89.707,62.781z"/>
	</g>
</g>
<g>
</g>
<g>
</g>
<g>
</g>
<g>
</g>
<g>
</g>
<g>
</g>
<g>
</g>
<g>
</g>
<g>
</g>
<g>
</g>
<g>
</g>
<g>
</g>
<g>
</g>
<g>
</g>
<g>
</g>
</svg>
