<?xml version="1.0" encoding="iso-8859-1"?>
<!-- Generator: Adobe Illustrator 18.0.0, SVG Export Plug-In . SVG Version: 6.00 Build 0)  -->
<!DOCTYPE svg PUBLIC "-//W3C//DTD SVG 1.1//EN" "http://www.w3.org/Graphics/SVG/1.1/DTD/svg11.dtd">
<svg version="1.1" id="Capa_1" xmlns="http://www.w3.org/2000/svg" xmlns:xlink="http://www.w3.org/1999/xlink" x="0px" y="0px"
	 viewBox="0 0 456.564 456.564" style="enable-background:new 0 0 456.564 456.564;" xml:space="preserve">
<g id="XMLID_1158_">
	<path id="XMLID_1159_" d="M238.571,309.87v113.278c0,11.708,9.491,21.2,21.2,21.2c11.708,0,21.2-9.492,21.2-21.2V322.034
		c-0.578,0.015-1.155,0.034-1.737,0.034C265.287,322.067,251.216,317.724,238.571,309.87z"/>
	<path id="XMLID_1164_" d="M364.85,314.646l-26.557-48.31c-1.483,17.856-9.428,33.278-22.425,43.46
		c-0.481,0.377-0.973,0.737-1.465,1.098l10.923,19.87l4.393,93.382c0.534,11.356,9.909,20.204,21.16,20.204
		c0.336,0,0.673-0.008,1.013-0.024c11.695-0.55,20.73-10.478,20.18-22.173l-4.624-98.29
		C367.296,320.632,366.407,317.479,364.85,314.646z"/>
	<circle id="XMLID_1166_" cx="285.542" cy="48.829" r="36.614"/>
	<path id="XMLID_1169_" d="M416.958,165.271l-33.462,26.215c0.153,0.564,0.293,1.129,0.431,1.693l50.989-25.924
		C428.663,168.781,422.316,167.931,416.958,165.271z"/>
	<path id="XMLID_1170_" d="M450.344,117.57l1.723-1.35c5.1-3.995,5.994-11.367,2-16.467c-0.005-0.006-0.011-0.012-0.016-0.018
		c-3.953-5.025-11.334-5.99-16.451-1.981l-1.724,1.35c-2.305-2.942-7.492-11.936-15.91-6.542c-4.68,3.001-5.732,9.349-2.332,13.69
		l3.468,4.427l-2.954,2.314c-5.343-6.82-2.723-3.476-3.493-4.455c-3.223-4.08-9.131-4.719-13.149-1.571
		c-4.096,3.209-4.755,9.146-1.6,13.174l3.468,4.427l-54.596,42.773c-0.021-0.018-0.042-0.034-0.063-0.051
		c-17.89-15.191-43.492-17.208-55.753,1.433c-3.133,4.764-4.235,11.628-13.018,16.965l14.259,10.069
		c2.172,1.534,4.126,3.29,5.858,5.222c0.102-0.084,0.193-0.177,0.298-0.259c6.658-5.216,16.283-4.047,21.499,2.61
		c5.216,6.658,4.047,16.283-2.611,21.499c-3.136,2.457-6.929,3.48-10.611,3.197c-0.652,5.698-2.721,11.174-6.121,15.988
		c-5.358,7.588-13.521,12.636-22.54,14.161l3.579,4.568c3.196,4.079,2.48,9.977-1.6,13.173c-4.077,3.195-9.976,2.481-13.173-1.6
		l-20.577-26.264l-35.885-25.34c-3.711,18.916,3.113,39.298,15.103,54.603c0.001,0.001,0.002,0.003,0.003,0.004
		c19.255,24.574,54.069,37.86,77.981,19.126c16.293-12.764,15.53-31.466,16.728-36.228c2.435-9.678,10.439-17.475,20.893-19.15
		c6.396-1.025,12.294-3.936,16.903-8.746c11.582-12.086,10.855-31.439,3.315-46.515l54.596-42.773l3.468,4.427
		c3.188,4.069,9.104,4.788,13.174,1.6c4.01-3.142,4.84-9.037,1.6-13.174l-3.468-4.426l2.954-2.314l3.468,4.427
		c3.189,4.07,9.088,4.8,13.174,1.6c4.136-3.241,4.745-9.159,1.6-13.174L450.344,117.57z"/>
	<path id="XMLID_1171_" d="M288.664,234.232c5.628-7.97,3.73-18.994-4.241-24.622c-1.697-1.198-30.42-21.48-53.137-37.522
		c0.221-27.471,0.129-16.117,0.267-33.199c0.01-1.933,1.582-3.493,3.514-3.488c1.932,0.005,3.495,1.573,3.495,3.505v17.557
		l21.619,15.266c0,0,5.921,0.76,6.407,0.76c3.53,0,6.701-2.103,8.079-5.358c3.186-7.525,7.983-13.833,14.258-18.749
		c8.352-6.544,18.649-10.002,29.776-10.001c4.482,0,8.988,0.562,13.437,1.644v-0.217c0-1.858,1.368-3.431,3.208-3.69
		c1.839-0.258,3.588,0.878,4.1,2.663c0.301,1.05,0.477,2.273,0.472,3.696c2.781,1.079,5.519,2.357,8.192,3.84l24.17-18.935
		c-6.63-18.625-21.392-30.269-39.223-30.269h-95.031c-22.937,0-41.692,18.66-41.807,41.544l-0.101,12.626l-0.239,29.762
		c-0.046,5.757,2.768,11.249,7.476,14.573c6.69,4.724,54.149,38.236,60.687,42.853C272.041,244.121,283.07,242.155,288.664,234.232z
		"/>
	<path id="XMLID_1173_" d="M97.891,60.745l0.24,0.001c10.162,0.061,19.412,3.993,26.359,10.387c5.248-6.192,8.418-14.2,8.418-22.953
		c0-19.624-15.908-35.532-35.532-35.532c-19.623,0-35.532,15.908-35.532,35.532c0,9.018,3.366,17.245,8.902,23.511
		C77.816,64.921,87.385,60.745,97.891,60.745z"/>
	<path id="XMLID_1175_" d="M143.252,95.037h-6.377c1.581,12.337-2.68,24.255-10.997,32.652c-0.015,2.412-0.058,9.62-0.074,12.129
		c3.267,8.593,3.002,17.772-0.156,25.834l-0.164,27.059c-0.093,15.428-12.72,27.98-28.149,27.98h-0.058H97.22l-0.057,0
		c-12.208-0.074-22.574-7.952-26.4-18.863l-19.213,8.767l0.008,213.182c0,11.362,9.211,20.573,20.573,20.573
		s20.573-9.211,20.573-20.573V263.775c0-2.453,1.988-4.441,4.441-4.441c2.453,0,4.441,1.988,4.441,4.441v160.001
		c0,11.362,9.211,20.573,20.573,20.573s20.573-9.211,20.573-20.573l-0.365-287.914c-0.002-1.928,1.519-3.513,3.445-3.59
		c1.927-0.077,3.572,1.381,3.722,3.303c0,0.001,0,0.002,0,0.003l0.633,125.952c0.048,9.439,7.714,17.058,17.142,17.058
		c0.028,0,0.059,0,0.088,0c9.469-0.048,17.105-7.762,17.058-17.23l-0.633-125.951C183.712,113.146,165.512,95.037,143.252,95.037z"
		/>
	<path id="XMLID_1180_" d="M97.277,201.923c0.019,0,0.039,0,0.058,0c5.155,0,9.352-4.164,9.383-9.327l0.044-7.195l-18.696,8.531
		C88.736,198.43,92.589,201.895,97.277,201.923z"/>
	<path id="XMLID_1182_" d="M97.891,79.512c-11.289,0-20.474,9.117-20.542,20.421c-0.043,7.153,3.583,13.461,9.106,17.173
		c6.878-1.12,14.085-0.232,20.703,2.8l0.009-1.517c6.647-3.369,11.224-10.243,11.272-18.207
		c0.068-11.347-9.074-20.601-20.421-20.669C97.975,79.512,97.933,79.512,97.891,79.512z"/>
	<path id="XMLID_1184_" d="M106.232,142.668c-4.746-6.735-13.662-9.119-21.111-5.709l-41.723,19.037l6.451-23.504
		c8.556-3.988,4.7-2.212,17.268-7.946c-6.403-8.029-9.612-18.562-8.203-29.509l-21.502-0.032v0.042
		c-7.623,0.103-14.278,5.226-16.301,12.597L9.223,150.962c-0.141,0.514-8.471,30.863-8.608,31.375
		c-3.763,13.893,10.424,26.115,23.665,20.071c35.833-16.35,21.743-9.921,75.074-34.255
		C109.016,163.746,112.509,151.566,106.232,142.668z"/>
</g>
<g>
</g>
<g>
</g>
<g>
</g>
<g>
</g>
<g>
</g>
<g>
</g>
<g>
</g>
<g>
</g>
<g>
</g>
<g>
</g>
<g>
</g>
<g>
</g>
<g>
</g>
<g>
</g>
<g>
</g>
</svg>
