<?xml version="1.0" encoding="iso-8859-1"?>
<!-- Generator: Adobe Illustrator 17.1.0, SVG Export Plug-In . SVG Version: 6.00 Build 0)  -->
<!DOCTYPE svg PUBLIC "-//W3C//DTD SVG 1.1//EN" "http://www.w3.org/Graphics/SVG/1.1/DTD/svg11.dtd">
<svg version="1.1" id="Capa_1" xmlns="http://www.w3.org/2000/svg" xmlns:xlink="http://www.w3.org/1999/xlink" x="0px" y="0px"
	 viewBox="0 0 365.453 365.453" style="enable-background:new 0 0 365.453 365.453;" xml:space="preserve">
<g>
	<path d="M351.609,199.162c0-16.989-9.496-30.388-21.795-31.073c-6.537-29.555-20.771-55.99-40.329-76.769
		c4.737-8.879,2.598-20.439-6.373-34.369c-4.839-7.515-2.065-16.878,0.618-25.934c2.604-8.792,5.065-17.096,0.208-23.601
		C280.16,2.356,272.854,0,260.945,0c-33.054,0-64.639,17.372-78.485,34.186C168.614,17.373,137.03,0,103.975,0
		C93.142,0,86.361,2.228,82.639,7.01c-4.954,6.365-2.841,14.716-0.603,23.557c2.325,9.186,4.729,18.684-0.229,26.384
		c-9.027,14.018-11.144,25.639-6.289,34.539c0.036,0.066,0.08,0.126,0.116,0.191c-19.385,20.724-33.497,47.023-39.996,76.408
		c-12.299,0.686-21.794,14.084-21.794,31.073c0,15.986,8.408,28.79,19.648,30.818c11.38,76.662,73.965,135.473,149.235,135.473
		s137.854-58.811,149.234-135.473C343.201,227.952,351.609,215.148,351.609,199.162z M182.727,335.453
		c-66.769,0-121.089-58.586-121.089-130.599c0-39.966,16.737-76.017,43.042-99.993c1.202,0.055,2.423-0.135,3.686-0.135
		c0.001,0,0.001,0,0.002,0c7.367,0,15.622-0.708,24.534-2.55c25.102-5.19,41.804-15.967,49.558-27.165
		c7.754,11.198,24.456,22.145,49.559,27.335c8.911,1.842,17.166,2.805,24.535,2.805c1.441,0,2.827-0.035,4.188-0.105
		c26.323,23.976,43.073,59.819,43.073,99.802C303.814,276.86,249.495,335.453,182.727,335.453z"/>
	<path d="M215.345,255.247c-2.27,2.338-15.636,10.603-32.616,10.603c-15.069,0-29.643-7.699-32.618-10.604
		c-5.767-5.949-15.264-6.094-21.21-0.325c-5.947,5.767-6.093,15.264-0.325,21.21c7.712,7.952,30.256,19.719,54.153,19.719
		c25.693,0,46.457-11.788,54.146-19.712c5.77-5.945,5.626-15.441-0.319-21.21C230.61,249.158,221.112,249.301,215.345,255.247z"/>
	<path d="M153.964,181.898c0-14.087-11.461-25.547-25.548-25.547s-25.547,11.46-25.547,25.547s11.46,25.547,25.547,25.547
		S153.964,195.985,153.964,181.898z"/>
	<path d="M237.036,156.352c-14.087,0-25.547,11.46-25.547,25.547s11.46,25.547,25.547,25.547s25.547-11.46,25.547-25.547
		S251.123,156.352,237.036,156.352z"/>
</g>
<g>
</g>
<g>
</g>
<g>
</g>
<g>
</g>
<g>
</g>
<g>
</g>
<g>
</g>
<g>
</g>
<g>
</g>
<g>
</g>
<g>
</g>
<g>
</g>
<g>
</g>
<g>
</g>
<g>
</g>
</svg>
