<?xml version="1.0" encoding="iso-8859-1"?>
<!-- Generator: Adobe Illustrator 17.1.0, SVG Export Plug-In . SVG Version: 6.00 Build 0)  -->
<!DOCTYPE svg PUBLIC "-//W3C//DTD SVG 1.1//EN" "http://www.w3.org/Graphics/SVG/1.1/DTD/svg11.dtd">
<svg version="1.1" id="Capa_1" xmlns="http://www.w3.org/2000/svg" xmlns:xlink="http://www.w3.org/1999/xlink" x="0px" y="0px"
	 viewBox="0 0 342.996 342.996" style="enable-background:new 0 0 342.996 342.996;" xml:space="preserve">
<g>
	<path d="M259.694,242.209c-1.855-3.178-3.801-6.029-5.517-8.545c-8.935-13.094-13.856-20.308,11.22-52.74
		c9.144-11.828,14.795-44.06,3.228-69.683c-6.25-13.843-19.881-30.743-49.329-32.646c-3.605-0.233-7.224-0.352-10.754-0.352
		c-39.953,0-74.272,14.586-102.004,43.354c-40.754,42.276-10.269,91.226-6.659,96.668c6.797,10.246,16.469,25.164,25.821,39.591
		c14.705,22.683,28.595,44.106,32.169,48.743c17.135,22.234,38.671,34.402,64.016,36.172l0.475,0.032
		c1.958,0.127,3.972,0.191,5.986,0.191c0.821,0,1.645-0.011,2.47-0.032c9.051-0.235,27.375-5.654,38.021-19.191
		c8.004-10.178,10.441-22.869,7.245-37.721C271.357,264.096,265.413,252.005,259.694,242.209z"/>
	<path d="M289.98,13.899c-5.341-6.079-12.729-9.714-20.803-10.235c-16.758-1.076-31.112,11.729-32.183,28.275
		c-0.521,8.074,2.132,15.868,7.473,21.946c5.34,6.079,12.729,9.714,20.803,10.235c0.663,0.043,1.323,0.064,1.979,0.064
		c15.91,0,29.177-12.448,30.203-28.34C297.974,27.772,295.321,19.977,289.98,13.899z"/>
	<path d="M197.688,46.906c0.514,0.033,1.024,0.05,1.532,0.05c12.331,0,22.614-9.647,23.41-21.964
		c0.405-6.258-1.652-12.299-5.791-17.01s-9.865-7.528-16.123-7.933c-12.991-0.84-24.113,9.09-24.942,21.914
		c-0.405,6.258,1.652,12.299,5.791,17.01S191.43,46.502,197.688,46.906z"/>
	<path d="M140.074,62.094c0.492,0.032,0.979,0.048,1.466,0.048c11.809,0,21.655-9.237,22.416-21.03
		c0.388-5.992-1.581-11.776-5.544-16.287c-3.964-4.511-9.446-7.208-15.438-7.595c-12.429-0.823-23.088,8.702-23.882,20.982
		C118.293,50.581,127.705,61.294,140.074,62.094z"/>
	<path d="M95.687,90.334c10.814,0,19.833-8.462,20.531-19.264c0.733-11.329-7.889-21.143-19.22-21.875
		c-11.378-0.73-21.148,7.974-21.875,19.22c-0.733,11.329,7.889,21.143,19.22,21.875C94.794,90.319,95.242,90.334,95.687,90.334z"/>
	<path d="M63.741,94.594c-9.503-0.623-17.619,6.642-18.226,16.012c-0.61,9.439,6.573,17.615,16.012,18.225
		c0.376,0.024,0.749,0.036,1.12,0.036c9.011,0,16.524-7.049,17.105-16.048C80.363,103.379,73.179,95.203,63.741,94.594z"/>
</g>
<g>
</g>
<g>
</g>
<g>
</g>
<g>
</g>
<g>
</g>
<g>
</g>
<g>
</g>
<g>
</g>
<g>
</g>
<g>
</g>
<g>
</g>
<g>
</g>
<g>
</g>
<g>
</g>
<g>
</g>
</svg>
