<?xml version="1.0" encoding="iso-8859-1"?>
<!-- Generator: Adobe Illustrator 19.0.0, SVG Export Plug-In . SVG Version: 6.00 Build 0)  -->
<svg version="1.1" id="Layer_1" xmlns="http://www.w3.org/2000/svg" xmlns:xlink="http://www.w3.org/1999/xlink" x="0px" y="0px"
	 viewBox="0 0 512.001 512.001" style="enable-background:new 0 0 512.001 512.001;" xml:space="preserve">
<g>
	<g>
		<path d="M423.851,73.539h-20.139c0.337-1.047,0.509-2.218,0.509-3.39c0-3.597-1.587-7.195-4.761-7.195h-24.123V4.974
			c0-3.491-4.127-4.973-8.253-4.973s-8.253,1.482-8.253,4.973v67.292c0,0.456,0.07,0.879,0.192,1.273h-7.882
			c0.336-1.035,0.499-2.176,0.499-3.284c0-3.915-1.8-7.301-4.973-7.301H318.31V44.968h15.87c3.492,0,4.973-3.386,4.973-6.242
			c0-3.386-1.8-6.454-4.973-6.454h-15.87V14.39h28.355c3.174,0,4.973-3.386,4.973-7.301c0-3.386-1.482-7.089-4.973-7.089h-37.666
			c-3.597,0-7.196,1.693-7.196,5.079v67.185c0,0.456,0.07,0.879,0.192,1.273h-26.543c0.14-0.394,0.22-0.818,0.22-1.273V14.813
			h14.601c3.174,0,4.972-3.492,4.972-7.512c0-3.491-1.48-7.301-4.972-7.301h-45.708c-3.492,0-4.972,3.809-4.972,7.301
			c0,4.02,1.799,7.512,4.972,7.512h14.604v57.451c0,0.456,0.08,0.879,0.22,1.273h-33.492c5.627-3.857,9.15-10.431,9.15-20.53V24.971
			c0-18.198-11.428-24.969-26.028-24.969c-14.601,0-25.922,6.771-25.922,24.969v28.038c0,10.098,3.49,16.673,9.088,20.53h-19.885
			c0.14-0.394,0.22-0.818,0.22-1.273V4.974c0-3.491-4.127-4.973-8.253-4.973c-4.127,0-8.253,1.482-8.253,4.973v25.922h-21.054V4.974
			c0-3.491-4.127-4.973-8.252-4.973c-4.127,0-8.253,1.482-8.253,4.973v67.292c0,0.456,0.081,0.879,0.22,1.273H88.15
			c-11.464,0-20.792,9.326-20.792,20.792v27.422c0,7.677,4.193,14.378,10.398,17.979v362.049c0,5.644,4.576,10.22,10.22,10.22
			h336.048c5.643,0,10.22-4.575,10.22-10.22V139.732c6.205-3.601,10.398-10.303,10.398-17.979V94.331
			C444.642,82.866,435.315,73.539,423.851,73.539z M199.602,24.971c0-7.301,3.492-10.58,9.416-10.58c5.924,0,9.523,3.28,9.523,10.58
			v28.038c0,7.301-3.597,10.58-9.523,10.58s-9.416-3.279-9.416-10.58V24.971z M134.959,72.266V43.593h21.054v28.673
			c0,0.456,0.081,0.879,0.22,1.273h-21.495C134.878,73.144,134.959,72.721,134.959,72.266z M294.74,491.562h-28.52v-24.274
			c0-5.644-4.576-10.22-10.22-10.22c-5.643,0-10.22,4.575-10.22,10.22v24.274h-28.519v-78.526h77.478V491.562z M413.805,491.562
			h-98.627v-88.746c0-5.644-4.576-10.22-10.22-10.22h-97.917c-5.643,0-10.22,4.575-10.22,10.22v88.746H98.196V142.543h315.609
			V491.562z M424.203,121.753c0,0.194-0.157,0.353-0.353,0.353H88.15c-0.194,0-0.353-0.158-0.353-0.353c0,0,0-27.422,0-27.422
			c0-0.194,0.157-0.353,0.353-0.353h335.7c0.194,0,0.353,0.158,0.353,0.353V121.753z"/>
	</g>
</g>
<g>
	<g>
		<path d="M227.726,165.047h-84.351c-5.643,0-10.22,4.575-10.22,10.22v71.519c0,5.644,4.575,10.22,10.22,10.22h84.351
			c5.643,0,10.22-4.575,10.22-10.22v-71.519C237.946,169.622,233.369,165.047,227.726,165.047z M217.507,236.565h-63.912v-51.079
			h63.912V236.565z"/>
	</g>
</g>
<g>
	<g>
		<path d="M368.626,165.047h-84.351c-5.643,0-10.22,4.575-10.22,10.22v71.519c0,5.644,4.576,10.22,10.22,10.22h84.351
			c5.643,0,10.22-4.575,10.22-10.22v-71.519C378.846,169.622,374.269,165.047,368.626,165.047z M358.407,236.565h-63.912v-51.079
			h63.912V236.565z"/>
	</g>
</g>
<g>
	<g>
		<path d="M227.726,275.632h-84.351c-5.643,0-10.22,4.575-10.22,10.22v71.518c0,5.644,4.575,10.22,10.22,10.22h84.351
			c5.643,0,10.22-4.575,10.22-10.22v-71.518C237.946,280.207,233.369,275.632,227.726,275.632z M217.507,347.15h-63.912v-51.079
			h63.912V347.15z"/>
	</g>
</g>
<g>
	<g>
		<path d="M368.626,275.632h-84.351c-5.643,0-10.22,4.575-10.22,10.22v71.518c0,5.644,4.576,10.22,10.22,10.22h84.351
			c5.643,0,10.22-4.575,10.22-10.22v-71.518C378.846,280.207,374.269,275.632,368.626,275.632z M358.407,347.15h-63.912v-51.079
			h63.912V347.15z"/>
	</g>
</g>
<g>
	<g>
		<path d="M256.001,423.793c-5.643,0-10.22,4.575-10.22,10.22v3.119c0,5.644,4.576,10.22,10.22,10.22
			c5.643,0,10.22-4.575,10.22-10.22v-3.119C266.22,428.368,261.644,423.793,256.001,423.793z"/>
	</g>
</g>
<g>
</g>
<g>
</g>
<g>
</g>
<g>
</g>
<g>
</g>
<g>
</g>
<g>
</g>
<g>
</g>
<g>
</g>
<g>
</g>
<g>
</g>
<g>
</g>
<g>
</g>
<g>
</g>
<g>
</g>
</svg>
